<svg xmlns="http://www.w3.org/2000/svg" width="64" height="64" viewBox="0 0 64 64" fill="none">
  <!-- Brain outline - left hemisphere -->
  <path d="M32 14c-4-4-12-4-14 2s-2 10 2 14c-4 2-6 8-2 12s8 6 14 6" stroke="#1a1a1a" stroke-width="2.5" fill="none" stroke-linecap="round" stroke-linejoin="round"/>
  <!-- Brain outline - right hemisphere -->
  <path d="M32 14c4-4 12-4 14 2s2 10-2 14c4 2 6 8 2 12s-8 6-14 6" stroke="#1a1a1a" stroke-width="2.5" fill="none" stroke-linecap="round" stroke-linejoin="round"/>
  <!-- Center line -->
  <line x1="32" y1="14" x2="32" y2="48" stroke="#1a1a1a" stroke-width="2" stroke-linecap="round"/>
  <!-- Neural network nodes -->
  <circle cx="26" cy="24" r="2.5" fill="#1a1a1a"/>
  <circle cx="38" cy="24" r="2.5" fill="#1a1a1a"/>
  <circle cx="24" cy="34" r="2.5" fill="#1a1a1a"/>
  <circle cx="40" cy="34" r="2.5" fill="#1a1a1a"/>
  <circle cx="28" cy="42" r="2.5" fill="#1a1a1a"/>
  <circle cx="36" cy="42" r="2.5" fill="#1a1a1a"/>
  <!-- Neural connections -->
  <line x1="26" y1="24" x2="38" y2="24" stroke="#1a1a1a" stroke-width="1.5" stroke-linecap="round" opacity="0.5"/>
  <line x1="26" y1="24" x2="24" y2="34" stroke="#1a1a1a" stroke-width="1.5" stroke-linecap="round" opacity="0.5"/>
  <line x1="38" y1="24" x2="40" y2="34" stroke="#1a1a1a" stroke-width="1.5" stroke-linecap="round" opacity="0.5"/>
  <line x1="24" y1="34" x2="28" y2="42" stroke="#1a1a1a" stroke-width="1.5" stroke-linecap="round" opacity="0.5"/>
  <line x1="40" y1="34" x2="36" y2="42" stroke="#1a1a1a" stroke-width="1.5" stroke-linecap="round" opacity="0.5"/>
  <line x1="26" y1="24" x2="40" y2="34" stroke="#1a1a1a" stroke-width="1.5" stroke-linecap="round" opacity="0.3"/>
  <line x1="38" y1="24" x2="24" y2="34" stroke="#1a1a1a" stroke-width="1.5" stroke-linecap="round" opacity="0.3"/>
</svg>
