<svg xmlns="http://www.w3.org/2000/svg" width="64" height="64" viewBox="0 0 64 64" fill="none">
  <!-- Cloud -->
  <path d="M18 36h-2a8 8 0 0 1 0-16 1 1 0 0 1 1 0 12 12 0 0 1 22-2 1 1 0 0 1 1 0 10 10 0 0 1 2 20H18z" stroke="#1a1a1a" stroke-width="2.5" fill="none" stroke-linecap="round" stroke-linejoin="round"/>
  <!-- Cloud simplified shape -->
  <path d="M16 34a8 8 0 0 1-.5-16A12 12 0 0 1 38 16a10 10 0 0 1 10 12 10 10 0 0 1-4 8" stroke="#1a1a1a" stroke-width="2.5" fill="none" stroke-linecap="round" stroke-linejoin="round"/>
  <!-- IoT device nodes -->
  <circle cx="18" cy="50" r="4" stroke="#1a1a1a" stroke-width="2" fill="none"/>
  <circle cx="32" cy="54" r="4" stroke="#1a1a1a" stroke-width="2" fill="none"/>
  <circle cx="46" cy="50" r="4" stroke="#1a1a1a" stroke-width="2" fill="none"/>
  <!-- Connection lines from cloud to devices -->
  <line x1="22" y1="36" x2="18" y2="46" stroke="#1a1a1a" stroke-width="1.5" stroke-dasharray="3 2" stroke-linecap="round"/>
  <line x1="32" y1="36" x2="32" y2="50" stroke="#1a1a1a" stroke-width="1.5" stroke-dasharray="3 2" stroke-linecap="round"/>
  <line x1="42" y1="36" x2="46" y2="46" stroke="#1a1a1a" stroke-width="1.5" stroke-dasharray="3 2" stroke-linecap="round"/>
  <!-- Signal dots on nodes -->
  <circle cx="18" cy="50" r="1.5" fill="#1a1a1a"/>
  <circle cx="32" cy="54" r="1.5" fill="#1a1a1a"/>
  <circle cx="46" cy="50" r="1.5" fill="#1a1a1a"/>
</svg>
